# xmcd CD database file
#
# Track frame offsets:
#	150
#	18633
#	36447
#	50021
#	65691
#	82483
#	108194
#	142283
#	159908
#	189672
#	220969
#	232141
#	247846
#	273696
#	303393
#
# Disc length: 4268 seconds
#
# Revision: 0
# Processed by: cddbd v1.5.1PL0 Copyright (c) Steve Scherf et al.
# Submitted via: CDex 1.51
#
DISCID=ea10aa0f
DTITLE=Gilles Archambault - Justin Time
DYEAR=2004
DGENRE=Jazz
TTITLE0=Just Friends
TTITLE1=Chelsea Bridge
TTITLE2=On The Sentimental Side
TTITLE3=Blue Moon
TTITLE4=The Survey with The Fringe On Top
TTITLE5=Daydream
TTITLE6=Naima
TTITLE7=Straight No Chaser
TTITLE8=Milestones
TTITLE9=You Don't Know What Love Is
TTITLE10=Basics
TTITLE11=You And The Night And The Music
TTITLE12=Always
TTITLE13=I Fall In Love Too Easily
TTITLE14=Stardust
EXTD=YEAR: 2004
EXTT0=
EXTT1=
EXTT2=
EXTT3=
EXTT4=
EXTT5=
EXTT6=
EXTT7=
EXTT8=
EXTT9=
EXTT10=
EXTT11=
EXTT12=
EXTT13=
EXTT14=
PLAYORDER=
